<svg xmlns="http://www.w3.org/2000/svg" viewBox="0 0 145.2 139.45"><defs><style>.cls-1{fill:#0c4520;}.cls-2{fill:#fcd422;}</style></defs><title>HomeAsset 8</title><g id="Layer_2" data-name="Layer 2"><g id="Layer_1-2" data-name="Layer 1"><line class="cls-1" x1="30.54" y1="105" x2="0.2" y2="105"/><rect class="cls-1" x="0.2" y="104.83" width="30.34" height="0.33"/><rect class="cls-1" x="0.2" y="104.33" width="30.34" height="1.33"/><path class="cls-1" d="M30.73,105.83H0v-1.66H30.73ZM.4,105.5H30.34v-1H.4Z"/><line class="cls-1" x1="30.54" y1="121.39" x2="4.99" y2="121.39"/><rect class="cls-1" x="4.99" y="121.22" width="25.55" height="0.33"/><rect class="cls-1" x="4.99" y="120.72" width="25.55" height="1.33"/><path class="cls-1" d="M30.73,122.22H4.79v-1.66H30.73Zm-25.54-.33H30.34v-1H5.19Z"/><line class="cls-1" x1="30.54" y1="129.58" x2="12.97" y2="129.58"/><rect class="cls-1" x="12.97" y="129.42" width="17.56" height="0.33"/><rect class="cls-1" x="12.97" y="128.92" width="17.56" height="1.33"/><path class="cls-1" d="M30.73,130.42h-18v-1.67h18Zm-17.56-.34H30.34v-1H13.17Z"/><line class="cls-1" x1="28.94" y1="113.19" x2="16.17" y2="113.19"/><rect class="cls-1" x="16.17" y="113.03" width="12.77" height="0.33"/><rect class="cls-1" x="16.17" y="112.53" width="12.77" height="1.33"/><path class="cls-1" d="M29.14,114H16v-1.66H29.14Zm-12.77-.33H28.74v-1H16.37Z"/><path class="cls-1" d="M62,84.81c1.39,5.57,2.62,11,4.11,16.41A82.46,82.46,0,0,0,81,130.35c2,2.57,2.66,2.56,4.69,0C94.3,119.47,99.56,107,102.54,93.53c.63-2.87,1.26-5.74,1.89-8.58.15,0,.26-.09.33-.06,6.56,2.82,13.17,5.56,19.68,8.5,12.55,5.67,18.66,16,20.6,29.16a32.08,32.08,0,0,1,.06,5.8,4.09,4.09,0,0,1-2.81,3.74,33.64,33.64,0,0,1-6.77,2c-8.83,1.38-17.65,2.8-26.53,3.81a191.38,191.38,0,0,1-34.76,1.23c-8.34-.58-16.67-1.32-25-2.3-6.89-.82-13.74-2.1-20.6-3.18a9.65,9.65,0,0,1-1.41-.34c-4.86-1.41-6.05-2.79-5.78-7.84.78-14.12,6.73-25.17,19.78-31.58,5.2-2.55,10.64-4.6,16-6.89C58.8,86.29,60.37,85.55,62,84.81Z"/><path class="cls-2" d="M54.44,50.84a18.16,18.16,0,0,1,.44-3.57c.27-.81,1.12-1.41,1.64-2.15a2.74,2.74,0,0,0,.65-1.38c.08-3.54,0-7.07.12-10.6.28-7.06,2.59-13.26,8.15-17.92A23.85,23.85,0,0,1,78,10.08a33.69,33.69,0,0,1,17.12,1.67c8.55,3.38,13,10,13.91,18.91.46,4.27.27,8.6.34,12.91,0,.81.06,1.35,1.05,1.73,1.4.54,1.45,2,1.57,3.35.66,6.93-1.9,12.76-6.19,18a9.47,9.47,0,0,0-1.61,2.83c-2,5.7-5.1,10.52-10.15,13.94a18.51,18.51,0,0,1-22.54-.75,27.45,27.45,0,0,1-9.12-13.16,9.3,9.3,0,0,0-1.68-3A25.2,25.2,0,0,1,54.44,50.84Z"/><path class="cls-2" d="M121.47,61.11c-.36,2.79-.66,5.47-1.07,8.14-.14.91.33,1.29.92,1.76a6.52,6.52,0,0,1,2,7.45,6.57,6.57,0,0,1-12.5-.52,6.47,6.47,0,0,1,4.07-8,1.67,1.67,0,0,0,1.3-1.63c.25-3.32.74-6.63.79-10,.12-7.65-.06-15.3.07-23,.19-11.65-5.19-20.09-14.88-25.95C88.05.93,68.72,3.3,57.51,14.86a27,27,0,0,0-8,19.61c.06,7.79,0,15.58,0,23.38,0,2.23-.89,3.2-3.17,3.09a12.65,12.65,0,0,1-4.21-.76,5.32,5.32,0,0,1-3.45-5.24q-.06-9.15,0-18.3a5.76,5.76,0,0,1,4.84-5.72,2.37,2.37,0,0,0,2.27-2.26C48.32,15.9,56.25,7.53,68.08,3.07,83-2.55,97.11-.51,109.65,9.62a31.11,31.11,0,0,1,11.39,20,1.56,1.56,0,0,0,1,1c4.42,1,5.88,2.85,5.89,7.42V53.13C127.92,58.35,126.58,60,121.47,61.11Z"/><path class="cls-1" d="M83.08,127.23c-1.78-3.35-3.48-6.65-5.28-9.88a4.6,4.6,0,0,1-.43-3.71c.54-2,.95-3.94,1.36-5.92a1.46,1.46,0,0,1,1.68-1.38c1.93,0,3.87,0,5.8,0a1.42,1.42,0,0,1,1.62,1.28c.54,2.44,1.12,4.89,1.65,7.34a1.76,1.76,0,0,1-.12,1.09c-1.9,3.59-3.84,7.15-5.77,10.72C83.53,126.88,83.39,127,83.08,127.23Z"/><path class="cls-1" d="M83.39,94.08c1.55,0,3.1,0,4.64,0,1.08,0,1.51.51,1.31,1.56-.48,2.46-.92,4.93-1.5,7.37a1.61,1.61,0,0,1-1.18.93c-2.22.09-4.45.1-6.67,0a1.74,1.74,0,0,1-1.26-1c-.57-2.39-1-4.82-1.48-7.23C77,94.46,77.59,94,78.75,94c1.55,0,3.09,0,4.64,0Z"/></g></g></svg>