<svg xmlns="http://www.w3.org/2000/svg" viewBox="0 0 215.94 119.98"><defs><style>.cls-1{fill:#0c4520;}.cls-2{fill:#fcd422;}</style></defs><title>HomeAsset 10</title><g id="Layer_2" data-name="Layer 2"><g id="Layer_1-2" data-name="Layer 1"><line class="cls-1" x1="28.23" y1="62.38" x2="0.18" y2="62.38"/><rect class="cls-1" x="0.18" y="62.2" width="28.04" height="0.37"/><rect class="cls-1" x="0.18" y="61.64" width="28.04" height="1.48"/><path class="cls-1" d="M28.41,63.3H0V61.46H28.41Zm-28-.37H28v-1.1H.37Z"/><line class="cls-1" x1="28.23" y1="80.58" x2="4.61" y2="80.58"/><rect class="cls-1" x="4.61" y="80.4" width="23.62" height="0.37"/><rect class="cls-1" x="4.61" y="79.85" width="23.62" height="1.48"/><path class="cls-1" d="M28.41,81.51h-24V79.66h24ZM4.8,81.14H28V80H4.8Z"/><line class="cls-1" x1="28.23" y1="89.69" x2="11.99" y2="89.69"/><rect class="cls-1" x="11.99" y="89.5" width="16.24" height="0.37"/><rect class="cls-1" x="11.99" y="88.95" width="16.24" height="1.48"/><path class="cls-1" d="M28.41,90.61H11.81V88.76h16.6Zm-16.23-.37H28V89.13H12.18Z"/><line class="cls-1" x1="26.75" y1="71.48" x2="14.94" y2="71.48"/><rect class="cls-1" x="14.94" y="71.3" width="11.81" height="0.37"/><rect class="cls-1" x="14.94" y="70.74" width="11.81" height="1.48"/><path class="cls-1" d="M26.94,72.4H14.76V70.56H26.94ZM15.13,72H26.57V70.93H15.13Z"/><path class="cls-1" d="M41.73,44.08a1.88,1.88,0,0,0-2.09-1.17c-2,.24-4,.38-6,.5a1.46,1.46,0,0,0-1.47,1c-.42,1-.94,2-1.46,3.16L8.63,39.66l13.94-5.37,88.34-34a3.48,3.48,0,0,1,2.74-.07q50.44,19.44,100.9,38.82c.4.15.8.33,1.39.58-.55.22-.94.4-1.34.55-13.2,4.73-26.35,9.66-39.64,14.13-11.48,3.87-23.13,7.22-34.7,10.79-8.91,2.75-17.82,5.5-26.75,8.19a4.34,4.34,0,0,1-2.37,0q-30-9.17-60-18.43c-1.79-.55-3.53-1.24-5.68-2L47,52.32c2.41-.78,4.78-1.67,7.22-2.31,1.71-.45,2.81-1.25,3-3.22l-4.37,1c-3.06.7-6.11,1.42-9.18,2.07-.7.15-.88.45-.92,1.13q-1.12,21-2.3,42a15.83,15.83,0,0,0-.09,2.48c.18,1.86-.7,2.81-2.37,3.46a20.33,20.33,0,0,1-16.85-.85,1.64,1.64,0,0,1-.69-1.11,33.11,33.11,0,0,1,.7-11.31c2.44-12.48,7.05-24.23,12.26-35.77A5.78,5.78,0,0,0,34,48.43c.3-2.28,1.72-3.15,3.83-3.43A34.44,34.44,0,0,0,41.73,44.08Z"/><path class="cls-2" d="M174.22,61.67v1.61q0,15.06,0,30.13c0,4.37-2.2,7.7-5.18,10.63a41.5,41.5,0,0,1-13.48,8.38c-9.75,4-20,6-30.47,7a141.2,141.2,0,0,1-28.63-.3c-10.8-1.23-21.32-3.57-31.14-8.43a35.19,35.19,0,0,1-10.77-7.76,14.85,14.85,0,0,1-4.1-10.44c.08-9.77,0-19.55,0-29.33V61.67c.58.15,1,.24,1.46.38q29.49,9.08,59,18.13a5.19,5.19,0,0,0,2.87,0q29.51-9,59-18.13C173.18,61.91,173.6,61.83,174.22,61.67Z"/></g></g></svg>