<svg xmlns="http://www.w3.org/2000/svg" viewBox="0 0 191.17 131"><defs><style>.cls-1{fill:#fcd422;}.cls-2{fill:#0c4520;}</style></defs><title>HomeAsset 4</title><g id="Layer_2" data-name="Layer 2"><g id="Layer_1-2" data-name="Layer 1"><path class="cls-1" d="M191.17,122.42c-2,.75-3.93,2.11-5.92,2.16-9.79.22-19.58.06-29.38.13-2.75,0-5.34-.48-5.43-3.62-.08-3.42,2.61-3.94,5.5-3.92,9.05.07,18.09,0,27.43,0V7.61H93.62c-.09,1.27-.26,2.56-.26,3.86,0,9,.06,18.1-.1,27.15a6.55,6.55,0,0,1-1.75,4.52c-2.45,2-5.38-.08-5.41-3.81-.08-8.8,0-17.6,0-26.4,0-2.85.05-5.7,0-8.55S87.51.07,90.36,0l1.86,0q46.31,0,92.6,0c2.51,0,5-.1,6.35,2.63Z"/><path class="cls-2" d="M23.76,73.31c2.11-.74,4.17-1.83,6.35-2.14,2.43-.35,5.19-.31,5.73,3.11S34,78.41,31.43,78.9v44.53h98c1.9-1.86,3.12-3.47,4.73-4.43.62-.37,3,.58,3.08,1.23.58,2.68,1.17,5.61.58,8.18-.26,1.18-3.24,2.45-5,2.47-16.36.18-32.73.11-49.09.11q-26.79,0-53.56,0c-2.51,0-5,.07-6.39-2.62Z"/><path class="cls-2" d="M100.4,51.88q25.65,0,51.32,0c5.08,0,6,1,6,6q0,24,0,48c0,4.82-.85,5.79-5.51,5.79q-51.69,0-103.38,0c-4.47,0-5.53-1.07-5.54-5.48q0-24.36,0-48.71c0-4.61,1-5.61,5.77-5.61Q74.73,51.86,100.4,51.88ZM51,59.42V104.2H150V59.42Z"/><path class="cls-1" d="M138.46,32.35c8.42,0,16.84,0,25.26,0,2.7,0,5.22.28,5.16,3.73,0,3.09-2.35,3.75-4.92,3.75q-25.46,0-50.9,0c-2.66,0-5-.9-5-3.71-.05-3.09,2.33-3.85,5.19-3.81C121.62,32.42,130,32.35,138.46,32.35Z"/><path class="cls-1" d="M138.6,16.71c5.19,0,10.39,0,15.58,0,2.4,0,4.21.76,4.33,3.44.14,2.86-1.71,4-4.23,4q-15.94.09-31.89,0c-2.33,0-4.15-1.09-4.16-3.73,0-2.86,1.85-3.74,4.43-3.73C128,16.73,133.29,16.71,138.6,16.71Z"/><path class="cls-1" d="M177.89,97.26c-.14,4.62-1.68,8.51-5.76,10.59-1.31.68-3.46-.27-5.22-.48.28-1.76,0-4.05,1-5.19,3.47-4,3.44-5.9-.23-9.93-.93-1-1.29-3.78-.58-4.78s3.49-1.62,4.7-1C176.22,88.55,177.75,92.67,177.89,97.26Z"/><path class="cls-2" d="M100.5,95.86A14.14,14.14,0,0,1,86.31,81.77,14.36,14.36,0,0,1,100.6,67.65a14,14,0,0,1,14,14.21A13.76,13.76,0,0,1,100.5,95.86ZM100.7,75a7,7,0,0,0-6.91,6.43,6.9,6.9,0,0,0,6.59,7.07,6.64,6.64,0,0,0,6.81-6.37A6.85,6.85,0,0,0,100.7,75Z"/><path class="cls-2" d="M68.78,85.33c-1.85,0-3.88.46-5.51-.15a5.09,5.09,0,0,1-2.85-3.48c-.1-1,1.6-3.11,2.66-3.22a55.37,55.37,0,0,1,11.44,0c1,.11,2.72,2.2,2.62,3.23a5,5,0,0,1-2.85,3.48C72.66,85.78,70.63,85.33,68.78,85.33Z"/><path class="cls-2" d="M132.25,85.37c-1.72,0-3.61.43-5.12-.13-1.33-.5-3.2-2.21-3.11-3.21.13-1.35,1.8-3.45,3-3.62a39.9,39.9,0,0,1,10.64,0c1.16.15,3,2.32,2.86,3.33-.18,1.33-1.82,2.93-3.2,3.5s-3.39.14-5.11.14Z"/><line class="cls-2" x1="25.62" y1="91.85" x2="0.17" y2="91.85"/><rect class="cls-2" x="0.17" y="91.68" width="25.45" height="0.33"/><rect class="cls-2" x="0.17" y="91.18" width="25.45" height="1.34"/><path class="cls-2" d="M25.79,92.69H0V91H25.79ZM.33,92.35H25.45v-1H.33Z"/><line class="cls-2" x1="25.62" y1="108.37" x2="4.19" y2="108.37"/><rect class="cls-2" x="4.19" y="108.21" width="21.43" height="0.33"/><rect class="cls-2" x="4.19" y="107.7" width="21.43" height="1.34"/><path class="cls-2" d="M25.79,109.21H4v-1.67H25.79Zm-21.44-.33h21.1v-1H4.35Z"/><line class="cls-2" x1="25.62" y1="116.63" x2="10.88" y2="116.63"/><rect class="cls-2" x="10.88" y="116.47" width="14.74" height="0.33"/><rect class="cls-2" x="10.88" y="115.96" width="14.74" height="1.34"/><path class="cls-2" d="M25.79,117.47H10.72V115.8H25.79Zm-14.74-.33h14.4v-1H11.05Z"/><line class="cls-2" x1="24.28" y1="100.11" x2="13.56" y2="100.11"/><rect class="cls-2" x="13.56" y="99.94" width="10.72" height="0.33"/><rect class="cls-2" x="13.56" y="99.44" width="10.72" height="1.34"/><path class="cls-2" d="M24.45,101h-11V99.27h11Zm-10.72-.34H24.11v-1H13.73Z"/></g></g></svg>