<svg xmlns="http://www.w3.org/2000/svg" viewBox="0 0 188.36 145.28"><defs><style>.cls-1{fill:#0c4520;}.cls-2{fill:#fcd422;}</style></defs><title>HomeAsset 9</title><g id="Layer_2" data-name="Layer 2"><g id="Layer_1-2" data-name="Layer 1"><path class="cls-1" d="M105,145.28c-1.48-.52-2.51-1.69-3.68-2.65-6.16-5-12.47-9.84-19.11-14.24s-13-8.92-19.2-13.79A151.87,151.87,0,0,1,46.1,99.42,92.55,92.55,0,0,1,31.55,79.69l-.18-.36.35,0h6.87a.63.63,0,0,1,.63.33,96,96,0,0,0,16,19.56,163.33,163.33,0,0,0,18.31,15.1c5.7,4.07,11.54,7.92,17.23,12,4.25,3,8.34,6.31,12.5,9.49.83.63,1.62,1.3,2.45,2,1-.83,2-1.64,3-2.47a192.11,192.11,0,0,1,15.94-11.73c6.66-4.44,13.22-9,19.52-14a141.88,141.88,0,0,0,18.28-16.8,80.37,80.37,0,0,0,14-21.09A60.53,60.53,0,0,0,181.06,56a55,55,0,0,0,.59-12,38.58,38.58,0,0,0-4.43-15.68A39.73,39.73,0,0,0,150.71,7.65a38.6,38.6,0,0,0-37.83,11.94c-1.59,1.75-3,3.66-4.52,5.5a3.43,3.43,0,0,1-4.83.51,6.56,6.56,0,0,1-.85-1A59,59,0,0,0,96,17,36.5,36.5,0,0,0,75.89,7.08,39,39,0,0,0,44,16.22,39.3,39.3,0,0,0,30.67,38.51a43.46,43.46,0,0,0-.76,12.1,63.63,63.63,0,0,0,1.16,8.69.45.45,0,0,1,0,.13H24.33c-.17-1-.36-2.09-.5-3.14A66.59,66.59,0,0,1,23.19,46,46.93,46.93,0,0,1,44.63,7.47a46.42,46.42,0,0,1,31.65-7,43.58,43.58,0,0,1,22,9.79,51.47,51.47,0,0,1,7.18,7.28,1.6,1.6,0,0,1,.17.3c.82-.94,1.55-1.8,2.3-2.63A45.62,45.62,0,0,1,162.59,5,47,47,0,0,1,187.78,39.5a49.66,49.66,0,0,1,.54,9.59,67.25,67.25,0,0,1-3.77,20.35,79.69,79.69,0,0,1-13.76,23.91,130.73,130.73,0,0,1-18.12,17.94A292.16,292.16,0,0,1,127.4,129.7a216,216,0,0,0-19,14.43,13.4,13.4,0,0,1-2,1.15Z"/><path class="cls-2" d="M59.08,64.47l-.81,1.6-2.33,4.65a3.29,3.29,0,0,1-3.11,2H29.88a3.21,3.21,0,0,1-3.08-1.83,3.13,3.13,0,0,1,.3-3.43,3.21,3.21,0,0,1,2.74-1.33c6.81,0,13.63,0,20.45,0a.83.83,0,0,0,.86-.53q2.64-5.35,5.32-10.68a3.29,3.29,0,0,1,4.75-1.54,3.42,3.42,0,0,1,1.48,1.88l5.43,14.52c.1.27.21.54.37.94.35-1.65.66-3.16,1-4.67q2.3-11.11,4.58-22.22,1.78-8.65,3.56-17.33A7,7,0,0,1,78,25a3.24,3.24,0,0,1,3.3-1.88,3.28,3.28,0,0,1,2.93,2.74c.74,4,1.46,8,2.19,12q1.17,6.49,2.35,13l2.76,15.22q1.53,8.43,3.07,16.85c.23,1.27.46,2.54.78,3.83l1.14-2.93c3.67-9.54,7.36-19.07,11-28.62A3.34,3.34,0,0,1,113.18,54a4.27,4.27,0,0,1,.73,1.3q3.65,9.69,7.27,19.38l.2.5,2-3.26c.85-1.35,1.71-2.7,2.54-4.05a3.49,3.49,0,0,1,3.19-1.77c5.53,0,11.07,0,16.6,0a.89.89,0,0,0,.84-.44,6.55,6.55,0,0,1,6.76-2.75,6.61,6.61,0,0,1,1.19,12.58,6.57,6.57,0,0,1-8-2.43.79.79,0,0,0-.76-.39q-7.29,0-14.57,0a.81.81,0,0,0-.78.44q-3.47,5.58-7,11.14a3.29,3.29,0,0,1-5.32.52,4,4,0,0,1-.69-1.21Q114.17,74.8,110.9,66c-.05-.13-.12-.27-.22-.5-.44,1.12-.84,2.14-1.23,3.16L97.34,100.17a3.31,3.31,0,0,1-6.42-.68c-1-5.64-2.06-11.27-3.08-16.91q-1.7-9.31-3.38-18.64-1.75-9.72-3.54-19.46a1.07,1.07,0,0,0-.18-.45c-.24,1.18-.49,2.37-.74,3.56q-3.1,15.12-6.23,30.25c-.37,1.83-.72,3.67-1.14,5.49a3.19,3.19,0,0,1-2.92,2.53,3.3,3.3,0,0,1-3.41-2.2q-1.74-4.6-3.46-9.23l-3.58-9.57C59.22,64.76,59.18,64.67,59.08,64.47Z"/><line class="cls-1" x1="28.23" y1="30.53" x2="0.18" y2="30.53"/><rect class="cls-1" x="0.18" y="30.35" width="28.04" height="0.37"/><rect class="cls-1" x="0.18" y="29.79" width="28.04" height="1.48"/><path class="cls-1" d="M28.41,31.45H0V29.61H28.41Zm-28-.37H28V30H.37Z"/><line class="cls-1" x1="28.23" y1="48.73" x2="4.61" y2="48.73"/><rect class="cls-1" x="4.61" y="48.55" width="23.62" height="0.37"/><rect class="cls-1" x="4.61" y="48" width="23.62" height="1.48"/><path class="cls-1" d="M28.41,49.66h-24V47.81h24ZM4.8,49.29H28V48.18H4.8Z"/><line class="cls-1" x1="28.23" y1="57.84" x2="11.99" y2="57.84"/><rect class="cls-1" x="11.99" y="57.65" width="16.24" height="0.37"/><rect class="cls-1" x="11.99" y="57.1" width="16.24" height="1.48"/><path class="cls-1" d="M28.41,58.76H11.81V56.91h16.6Zm-16.23-.37H28V57.28H12.18Z"/><line class="cls-1" x1="26.75" y1="39.63" x2="14.94" y2="39.63"/><rect class="cls-1" x="14.94" y="39.45" width="11.81" height="0.37"/><rect class="cls-1" x="14.94" y="38.89" width="11.81" height="1.48"/><path class="cls-1" d="M26.94,40.56H14.76V38.71H26.94Zm-11.81-.37H26.57V39.08H15.13Z"/></g></g></svg>