<svg xmlns="http://www.w3.org/2000/svg" viewBox="0 0 221.87 193"><defs><style>.cls-1{fill:#0c4520;}.cls-2{fill:#ffd403;}</style></defs><title>LandservicesAsset 4</title><g id="Layer_2" data-name="Layer 2"><g id="Layer_1-2" data-name="Layer 1"><path class="cls-1" d="M29.76,193q-.27-46.21-.56-92.41A14.25,14.25,0,0,1,35.64,88c22.39-15.87,44.67-31.9,67-47.83,5.21-3.72,7.28-3.52,12.42.37,5.6,4.24,11.31,8.32,18.14,13.32H114.83v52.61h-35v46.85h34.68V193Z"/><path class="cls-1" d="M0,78.46C11.06,70.76,22.07,63,33.19,55.4c4.64-3.17,6.63-7.24,6.5-12.91-.27-11.35-.08-22.71-.08-34.34h22.6V33.93c1.62-1,2.6-1.47,3.47-2.11C78.22,22.6,90.77,13.4,103.25,4.11A37.63,37.63,0,0,0,107.32,0H110c1.77,1.92,3.28,4.2,5.35,5.71q31.83,23.16,63.8,46.1c.61.44,1.14,1,2.44,2.06-11.17.57-21.27.94-30.37-5.88-13.07-9.8-26.45-19.19-39.63-28.85-2.15-1.58-3.58-1.64-5.86,0Q59.31,52.41,12.7,85.43c-1.09.78-2.2,1.51-3.34,2.29L0,79.36Z"/><path class="cls-2" d="M126.26,193c-.11-1.49-.33-3-.33-4.48q0-59.9,0-119.79V64.82H146l39.18,0A13.65,13.65,0,0,1,199,77.94c.52,9.12.52,9.12,9.73,9.5,7.13.3,13.11,5.89,13.13,12.8.09,30.92.05,61.84.05,92.76Zm8.22-8.67h78.24V95.49H190.89V73.76H134.48Z"/><path class="cls-2" d="M138.73,147.72c2.68-.83,5.35-2.34,8-2.37,18-.21,36-.18,54,0,2.29,0,4.57,1.25,6.86,1.92l.06,2c-2.23.72-4.46,2-6.69,2.07-19.35.14-38.69.08-58,0-1.4,0-2.79-.76-4.18-1.17Z"/><path class="cls-2" d="M139.71,160.82c2.15-.64,4.31-1.83,6.47-1.84,18.45-.13,36.9-.06,55.35,0,1.17,0,2.62-.07,3.42.56,1.28,1,2.11,2.54,3.14,3.86-1.41.56-2.82,1.6-4.23,1.61-19.06,0-38.11,0-57.16-.2-2.33,0-4.65-1.22-7-1.87Z"/><path class="cls-2" d="M207.53,108.23c-2.16.6-4.32,1.7-6.48,1.72q-27.45.19-54.89,0c-2.15,0-4.29-1.18-6.43-1.81l0-1.78c1.95-.65,3.89-1.85,5.84-1.87q27.88-.21,55.77,0c2.11,0,4.2,1.39,6.3,2.13Z"/><path class="cls-2" d="M139.87,133.72c2.47-.68,4.93-1.91,7.41-1.93q26.78-.25,53.57,0c2.23,0,4.44,1.07,6.66,1.64l.17,2c-2.63.68-5.24,1.9-7.88,1.94q-26.1.3-52.2.1c-2.58,0-5.16-1.2-7.74-1.85Z"/><path class="cls-2" d="M207.58,122.07c-1.87.52-3.74,1.48-5.61,1.49q-27.91.16-55.84,0c-2.09,0-4.17-.93-6.25-1.44l-.23-1.79c2.16-.73,4.32-2.07,6.49-2.09q27.92-.26,55.83,0c1.93,0,3.85,1.41,5.77,2.16Z"/></g></g></svg>