<svg xmlns="http://www.w3.org/2000/svg" viewBox="0 0 171.94 158"><defs><style>.cls-1{fill:#ffd403;}.cls-2{fill:#0c4520;}</style></defs><title>HomeAsset 6</title><g id="Layer_2" data-name="Layer 2"><g id="Layer_1-2" data-name="Layer 1"><path class="cls-1" d="M42.65,56.35c0,5.5-2.85,10-6.34,10s-6.44-4.5-6.55-10l-.35-16.49c-.11-5.5,2.82-10,6.52-10s6.72,4.5,6.72,10Z"/><path class="cls-1" d="M69,56.51c0,5.5-2.77,10.35-6.16,10.77S56.65,63.54,56.59,58L56.41,39.7c0-5.5,2.76-10,6.25-10S69,34.2,69,39.7Z"/><path class="cls-1" d="M130.47,56.51c0,5.5-2.85,10-6.34,10s-6.35-4.5-6.35-10V39.7c0-5.5,2.86-10,6.35-10s6.34,4.5,6.34,10Z"/><path class="cls-1" d="M157.09,56.35c-.15,5.5-3.13,10-6.62,10s-6.34-4.5-6.34-10V39.87c0-5.5,3.08-9.93,6.85-9.83s6.72,4.67,6.57,10.17Z"/><circle class="cls-1" cx="92.42" cy="19.51" r="15.61"/><path class="cls-2" d="M171.94,79l0-2.4h-19V69.89c4.47-1.31,7.81-6.11,7.81-11.83V38.54c0-6.72-4.6-12.19-10.25-12.19s-10.24,5.47-10.24,12.19V58.06c0,5.72,3.33,10.52,7.8,11.83V76.6H126.57V69.89c4.47-1.31,7.8-6.11,7.8-11.83V38.54c0-6.72-4.59-12.19-10.24-12.19s-10.25,5.47-10.25,12.19V58.06c0,5.72,3.33,10.52,7.81,11.83V76.6H65.09V69.89c4.48-1.31,7.81-6.11,7.81-11.83V38.54c0-6.72-4.6-12.19-10.24-12.19S52.41,31.82,52.41,38.54V58.06c0,5.72,3.33,10.52,7.81,11.83V76.6H38.75V69.89c4.47-1.31,7.81-6.11,7.81-11.83V38.54c0-6.72-4.6-12.19-10.25-12.19S26.07,31.82,26.07,38.54V58.06c0,5.72,3.33,10.52,7.8,11.83V76.6H13.58l.3,2.7C17.26,109.74,33,140,62.5,152.19c28.9,11.92,64.16,5.13,86.34-17A74.45,74.45,0,0,0,162.4,116.5,87.46,87.46,0,0,0,171.94,79ZM145.11,58.06V38.54c0-4,2.45-7.32,5.36-7.32s5.37,3.35,5.37,7.32V58.06c0,4-2.46,7.31-5.37,7.31S145.11,62,145.11,58.06Zm-26.35,0V38.54c0-4,2.46-7.32,5.37-7.32s5.36,3.35,5.36,7.32V58.06c0,4-2.45,7.31-5.36,7.31S118.76,62,118.76,58.06Zm-61.47,0V38.54c0-4,2.46-7.32,5.37-7.32S68,34.57,68,38.54V58.06c0,4-2.46,7.31-5.36,7.31S57.29,62,57.29,58.06Zm-26.35,0V38.54c0-4,2.46-7.32,5.37-7.32s5.37,3.35,5.37,7.32V58.06c0,4-2.46,7.31-5.37,7.31S30.94,62,30.94,58.06Zm127,56.38c-12.22,23.67-34.32,36.87-65.67,39.24a76,76,0,0,1-33.51-8.63C36.41,133.33,23.06,112,19.06,81.47H69.63l-19,48.88,4.55,1.77,19.7-50.65H110l20.65,50.69,4.52-1.84-19.9-48.85H167A85.63,85.63,0,0,1,158,114.44Z"/><rect class="cls-2" x="90.46" y="89.28" width="4.88" height="12.68"/><rect class="cls-2" x="90.46" y="112.21" width="4.88" height="12.68"/><rect class="cls-2" x="90.46" y="131.73" width="4.88" height="12.68"/><rect class="cls-2" x="133.88" y="87.71" width="4.88" height="9" transform="translate(-22.4 135.72) rotate(-49.4)"/><rect class="cls-2" x="147.06" y="100.59" width="4.88" height="7.62" transform="translate(-26.41 152.41) rotate(-50.19)"/><rect class="cls-2" x="42.63" y="105.38" width="11.75" height="4.88" transform="translate(-59.38 59.46) rotate(-41.63)"/><path class="cls-2" d="M92.9,38.05a19,19,0,1,0-19-19A19,19,0,0,0,92.9,38.05Zm0-33.17A14.15,14.15,0,1,1,78.76,19,14.17,14.17,0,0,1,92.9,4.88Z"/><line class="cls-2" x1="29.2" y1="34.45" x2="0.19" y2="34.45"/><rect class="cls-2" x="0.19" y="34.26" width="29.01" height="0.38"/><rect class="cls-2" x="0.19" y="33.68" width="29.01" height="1.53"/><path class="cls-2" d="M29.4,35.4H0V33.49H29.4ZM.38,35H29V33.87H.38Z"/><line class="cls-2" x1="29.2" y1="53.28" x2="4.77" y2="53.28"/><rect class="cls-2" x="4.77" y="53.09" width="24.43" height="0.38"/><rect class="cls-2" x="4.77" y="52.52" width="24.43" height="1.53"/><path class="cls-2" d="M29.4,54.23H4.58v-1.9H29.4ZM5,53.85H29V52.71H5Z"/><line class="cls-2" x1="29.2" y1="62.7" x2="12.41" y2="62.7"/><rect class="cls-2" x="12.41" y="62.51" width="16.8" height="0.38"/><rect class="cls-2" x="12.41" y="61.93" width="16.8" height="1.53"/><path class="cls-2" d="M29.4,63.65H12.22V61.74H29.4Zm-16.8-.38H29V62.12H12.6Z"/><line class="cls-2" x1="27.68" y1="43.86" x2="15.46" y2="43.86"/><rect class="cls-2" x="15.46" y="43.67" width="12.22" height="0.38"/><rect class="cls-2" x="15.46" y="43.1" width="12.22" height="1.53"/><path class="cls-2" d="M27.87,44.82H15.27V42.91h12.6Zm-12.22-.38H27.49V43.29H15.65Z"/></g></g></svg>