<svg xmlns="http://www.w3.org/2000/svg" viewBox="0 0 645.38 470.78"><defs><style>.cls-1{fill:#d0d2d3;}.cls-2{fill:#ccc;}.cls-3{fill:#ffd403;}.cls-4{fill:#0c4520;}.cls-5{fill:#fff;}</style></defs><title>HomeAsset 1</title><g id="Layer_2" data-name="Layer 2"><g id="Layer_1-2" data-name="Layer 1"><path class="cls-1" d="M87.82,74.71c-3.3,0-6.29,1.18-6.64,2.61s2.06,2.61,5.36,2.61H135.4a8,8,0,0,0,7.42-5.83l7.37-30.28c.77-3.21-.05-5.83-1.83-5.83s-3.88,2.62-4.66,5.83l-6.1,25.06a8,8,0,0,1-7.41,5.83Z"/><path class="cls-2" d="M135.24,102c1-5.2-.67-8.46-5.1-9.79A11.5,11.5,0,0,1,130,96.8l-24.49,91.78L62.72,352.19Q60,362,49,362.2H11.83a18.4,18.4,0,0,1-5-.68q1.17,5.73,10.21,5.9H54.18q11-.23,13.75-10l42.82-163.62Z"/><path class="cls-1" d="M331.09,74.71c-3.3,0-6.29,1.18-6.64,2.61s2.06,2.61,5.36,2.61h48.86a8,8,0,0,0,7.42-5.83l7.36-30.28c.78-3.21,0-5.83-1.82-5.83s-3.88,2.62-4.66,5.83l-6.1,25.06a8,8,0,0,1-7.42,5.83Z"/><path class="cls-1" d="M643.26,38c-1.79,0-3.88,2.62-4.66,5.83l-6.1,25.06a8,8,0,0,1-7.42,5.83H582.71c-3.3,0-6.28,1.18-6.63,2.61s2.06,2.61,5.36,2.61H630.3a8,8,0,0,0,7.42-5.83l7.36-30.28C645.86,40.61,645,38,643.26,38Z"/><path class="cls-2" d="M270.14,55.36a10.25,10.25,0,0,0-1.58-.81,12.24,12.24,0,0,1,0,7.69l-38,149.29L190.76,368a129.73,129.73,0,0,1-39.25,63.71q-24,21.38-51.94,29.57c-3.9,1-7.08,1.06-9.59.12l.71,1.46q3.87,6.38,14.1,3.64,28-8.19,51.94-29.57A129.8,129.8,0,0,0,196,373.23L235.8,216.75l38-149.29Q276,59.24,270.14,55.36Z"/><path class="cls-2" d="M521.76,9.72a9,9,0,0,0-1.57-.81,12.24,12.24,0,0,1,0,7.69L467.43,224l-25,98.41a129.78,129.78,0,0,1-39.25,63.7q-24,21.39-51.94,29.58c-3.9,1-7.08,1.05-9.59.11l.7,1.47q3.88,6.36,14.11,3.64,28-8.19,51.94-29.58a129.78,129.78,0,0,0,39.25-63.7l25-98.41L525.41,21.81Q527.67,13.59,521.76,9.72Z"/><path class="cls-2" d="M378.5,102.31c1-5.21-.67-8.46-5.1-9.79a11.89,11.89,0,0,1-.12,4.57l-25.91,99-33,126.21q-2.76,9.8-13.76,10H263.46a18.71,18.71,0,0,1-5-.69q1.17,5.73,10.2,5.9h37.14q11-.23,13.75-10l33-126.21Z"/><path class="cls-2" d="M625,92.52a11.67,11.67,0,0,1-.11,4.57l-31.67,121L566,322.32q-2.75,9.8-13.75,10H515.08a18.69,18.69,0,0,1-5-.69q1.15,5.73,10.2,5.9h37.14q11-.23,13.75-10l27.27-104.21,31.66-121C631.16,97.1,629.45,93.85,625,92.52Z"/><path class="cls-3" d="M90.13,29.87a8,8,0,0,0-7.42,5.83L75.3,66c-.79,3.2,0,5.83,1.82,5.83h51.62A8,8,0,0,0,136.15,66l6.1-25.06,2.05-8.44c.35-1.44-2.06-2.61-5.36-2.61Z"/><path class="cls-3" d="M128.69,89.34q-1.16-5.73-10.16-5.9H81.61q-11,.23-13.68,10L40.55,195.86.29,348.84q-1.54,7.79,5.1,9.78a18.77,18.77,0,0,0,5,.69H47.51q11-.22,13.76-10l42.81-163.62L128.57,93.9A11.46,11.46,0,0,0,128.69,89.34Z"/><path class="cls-4" d="M333.4,29.87A8.06,8.06,0,0,0,326,35.7L318.57,66c-.79,3.2,0,5.83,1.82,5.83H372A8,8,0,0,0,379.42,66l6.1-25.06c.78-3.21,1.7-7,2.05-8.44s-2.07-2.61-5.37-2.61Z"/><path class="cls-4" d="M585,29.87a8.06,8.06,0,0,0-7.43,5.83L570.2,66c-.79,3.2,0,5.83,1.82,5.83h51.61A8,8,0,0,0,631.05,66l6.1-25.06c.78-3.21,1.7-7,2.05-8.44s-2.07-2.61-5.37-2.61Z"/><path class="cls-4" d="M267.11,51.65a9,9,0,0,0-3.64-4.41,10,10,0,0,0-5.47-1.6H218.82q-10.48.47-13.22,10L168.31,201.34l-39.7,155.08q-7.74,29.63-35,48.28a94.82,94.82,0,0,1-18.2,9.56q-8.64,3.4-4.32,13.65c.31.6.53,1.06.68,1.36L84,454.76a8.77,8.77,0,0,0,4.51,3.75c2.51.94,5.7.93,9.6-.11q28-8.19,51.93-29.58a129.77,129.77,0,0,0,39.26-63.7l39.81-156.49,38-149.29A12.25,12.25,0,0,0,267.11,51.65Z"/><path class="cls-4" d="M518.74,6A9,9,0,0,0,515.1,1.6,10,10,0,0,0,509.63,0H470.44Q460,.47,457.23,10L405.62,211.62l-25.38,99.16q-7.74,29.63-35,48.28a95.38,95.38,0,0,1-18.2,9.56q-8.64,3.4-4.32,13.65l.68,1.36,12.29,25.48a8.71,8.71,0,0,0,4.51,3.76c2.51.94,5.69.92,9.59-.12q28-8.19,51.94-29.57a129.73,129.73,0,0,0,39.25-63.71l25-98.4L518.74,13.7A12.24,12.24,0,0,0,518.74,6Z"/><path class="cls-4" d="M372,89.62q-1.17-5.72-10.16-5.9H324.86q-10.94.24-13.67,10l-21.7,82.46L251.92,319c-1,5.19.67,8.45,5.1,9.78a18.77,18.77,0,0,0,5,.69h37.13q11-.22,13.76-10l33-126.22,25.91-99A11.69,11.69,0,0,0,372,89.62Z"/><path class="cls-4" d="M623.57,89.62q-1.16-5.72-10.15-5.9H576.49q-10.93.24-13.68,10l-33.9,128.84L503.55,319c-1,5.19.67,8.45,5.1,9.78a18.71,18.71,0,0,0,5,.69h37.13q11-.22,13.75-10l27.27-104.22,31.67-121A11.67,11.67,0,0,0,623.57,89.62Z"/><path class="cls-5" d="M183.6,459.13a17.91,17.91,0,0,1,5.31-12.54,16.4,16.4,0,0,1,11.57-4.95,11.43,11.43,0,0,1,10.62,6l-2.74,1.69c-1.73-2.94-4-4.78-8.16-4.78a12.59,12.59,0,0,0-8.8,3.78A15.44,15.44,0,0,0,186.94,459c0,5.42,3.7,8.8,8.8,8.8a11.75,11.75,0,0,0,8.72-3.82l2.13,2.09a14.74,14.74,0,0,1-11,4.7C189,470.78,183.6,466.36,183.6,459.13Z"/><path class="cls-5" d="M228.52,441.92h3l5.23,28.34h-3.26l-1.28-7.43H216.9l-5.3,7.43h-3.5Zm3.21,18-2.53-14.39-10.29,14.39Z"/><path class="cls-5" d="M240.35,465.32l2.42-1.89a11,11,0,0,0,9.28,4.38c4.06,0,7.11-2.21,7.11-5.27,0-2.17-1.44-3.45-5.78-5.14-5.19-2-7.72-3.86-7.72-7.52a7,7,0,0,1,2.17-5.14,11.37,11.37,0,0,1,8.2-3A12.88,12.88,0,0,1,266,446l-2.33,2.09a10.23,10.23,0,0,0-7.92-3.49c-4.22,0-6.76,2.37-6.76,4.94,0,2.29,1.81,3.46,6.24,5.19,4.82,1.84,7.27,3.81,7.27,7.43a7.7,7.7,0,0,1-2.29,5.43,11.67,11.67,0,0,1-8.36,3.09C246.66,470.66,242.77,468.65,240.35,465.32Z"/><path class="cls-5" d="M274.22,442.13h3.17l-3.33,12.5h16l3.34-12.5h3.22l-7.56,28.13h-3.22l3.42-12.66h-16l-3.41,12.66h-3.18Z"/><path class="cls-5" d="M304.58,442.13h3.18L301,467.33h15.83l-.8,2.93H297Z"/><path class="cls-5" d="M329,442.13H349.1l-.8,2.89h-17l-2.57,9.61h15.16l-.81,2.89H328l-2.65,9.85h17.16l-.77,2.89H321.41Z"/><path class="cls-5" d="M346.91,465.32l2.41-1.89a11.06,11.06,0,0,0,9.29,4.38c4.06,0,7.11-2.21,7.11-5.27,0-2.17-1.44-3.45-5.79-5.14-5.18-2-7.71-3.86-7.71-7.52a7,7,0,0,1,2.17-5.14,11.37,11.37,0,0,1,8.2-3,12.85,12.85,0,0,1,10,4.26l-2.33,2.09a10.21,10.21,0,0,0-7.91-3.49c-4.22,0-6.76,2.37-6.76,4.94,0,2.29,1.81,3.46,6.23,5.19,4.83,1.84,7.28,3.81,7.28,7.43a7.74,7.74,0,0,1-2.29,5.43,11.69,11.69,0,0,1-8.36,3.09C353.22,470.66,349.32,468.65,346.91,465.32Z"/><path class="cls-5" d="M372.09,465.32l2.42-1.89a11,11,0,0,0,9.28,4.38c4.06,0,7.12-2.21,7.12-5.27,0-2.17-1.45-3.45-5.79-5.14-5.19-2-7.72-3.86-7.72-7.52a7,7,0,0,1,2.17-5.14,11.37,11.37,0,0,1,8.2-3,12.88,12.88,0,0,1,10,4.26l-2.33,2.09a10.22,10.22,0,0,0-7.92-3.49c-4.22,0-6.75,2.37-6.75,4.94,0,2.29,1.8,3.46,6.23,5.19,4.82,1.84,7.27,3.81,7.27,7.43a7.7,7.7,0,0,1-2.29,5.43,11.67,11.67,0,0,1-8.36,3.09C378.4,470.66,374.51,468.65,372.09,465.32Z"/><path class="cls-5" d="M418,442.13h8.8c3.54,0,6.23.84,8,2.61a7.18,7.18,0,0,1,2,5.22,9,9,0,0,1-2.65,6.59c-2.37,2.42-6.35,3.7-11.22,3.7h-6.67l-2.69,10h-3.18Zm8.68,2.93h-6.31l-3.3,12.38h6.07c3.94,0,6.92-1,8.65-2.69a6.26,6.26,0,0,0,1.77-4.59,4.46,4.46,0,0,0-1.29-3.33C431.11,445.66,429.22,445.06,426.69,445.06Z"/><path class="cls-5" d="M452.8,441.92h3.05l5.23,28.34h-3.26l-1.28-7.43H441.18l-5.3,7.43h-3.5Zm3.21,18-2.53-14.39-10.29,14.39Z"/><path class="cls-5" d="M473.28,458.92l-7-16.79h3.54l5.63,14.18,13.26-14.18h4.06l-16.48,17.32-2.89,10.81h-3.22Z"/><path class="cls-5" d="M496.93,442.13h3L506,457.48l14.35-15.35h3.53l-7.55,28.13h-3.22l6.11-22.79-14.27,15.07h-.16l-6.15-15-6.11,22.75h-3.13Z"/><path class="cls-5" d="M531.84,442.13H552l-.8,2.89h-17l-2.58,9.61h15.16l-.81,2.89H530.87l-2.65,9.85h17.16l-.76,2.89H524.28Z"/><path class="cls-5" d="M558.06,442.13H561L572.45,465l6.15-22.82h3.1l-7.56,28.13h-2.53l-11.74-23.35-6.27,23.35h-3.09Z"/><path class="cls-5" d="M595.5,445.06H586l.8-2.93H609l-.81,2.93h-9.48l-6.76,25.2h-3.17Z"/><path class="cls-5" d="M606.22,465.32l2.41-1.89a11,11,0,0,0,9.28,4.38c4.06,0,7.12-2.21,7.12-5.27,0-2.17-1.45-3.45-5.79-5.14-5.19-2-7.72-3.86-7.72-7.52a7.06,7.06,0,0,1,2.17-5.14,11.39,11.39,0,0,1,8.2-3,12.88,12.88,0,0,1,10,4.26l-2.33,2.09a10.22,10.22,0,0,0-7.92-3.49c-4.22,0-6.75,2.37-6.75,4.94,0,2.29,1.81,3.46,6.23,5.19,4.82,1.84,7.27,3.81,7.27,7.43a7.7,7.7,0,0,1-2.29,5.43,11.67,11.67,0,0,1-8.36,3.09C612.53,470.66,608.63,468.65,606.22,465.32Z"/></g></g></svg>