<svg xmlns="http://www.w3.org/2000/svg" viewBox="0 0 138.34 147.25"><defs><style>.cls-1{fill:#0c4520;}.cls-2{fill:#ffd403;}</style></defs><title>HomeAsset 5</title><g id="Layer_2" data-name="Layer 2"><g id="Layer_1-2" data-name="Layer 1"><path class="cls-1" d="M23.12,20a22.42,22.42,0,0,1,3.42-.51c24.72,0,49.45-.06,74.17.05a7.29,7.29,0,0,1,4.45,1.77c4.9,4.46,9.54,9.22,14.41,13.73a6.54,6.54,0,0,1,2.24,5.3q-.09,51.38,0,102.76c0,1.37.19,2.75.29,4.12H23.12ZM99,28.3H32.17V138.6H113V41.46H99Z"/><path class="cls-2" d="M138.13,127.43H126.24v-8l3.36-.51V22.12H115.77V8.64H48.7l-.37,6H40.24V0h3.45c24.51,0,49,0,73.52.08a8.22,8.22,0,0,1,5,2c4.92,4.44,9.66,9.09,14.32,13.81a6,6,0,0,1,1.75,3.81q.14,52.82.06,105.63C138.33,126,138.22,126.59,138.13,127.43Z"/><path class="cls-1" d="M71.4,124.12c-8.14,0-16.28,0-24.42,0-2.62,0-5-.42-5-3.55,0-3,2.33-3.44,4.79-3.44q24.72,0,49.46,0c2.41,0,4.76.33,4.8,3.4,0,3.25-2.32,3.59-4.91,3.58C87.89,124.1,79.64,124.12,71.4,124.12Z"/><path class="cls-1" d="M72.38,108.7c-8.35,0-16.7,0-25,0-2.47,0-4.33-.57-4.3-3.44,0-2.72,2-3.31,4.2-3.31q25.37,0,50.74,0c2.23,0,4.16.67,4.15,3.37s-1.93,3.4-4.38,3.38C89.29,108.67,80.83,108.7,72.38,108.7Z"/><path class="cls-1" d="M72.25,92.64q-12.18,0-24.36,0c-3.44,0-5-1.16-4.87-3.6.22-3.07,2.48-3.35,4.86-3.35q24.67,0,49.35,0c2.39,0,4.65.3,4.9,3.33.2,2.39-1.5,3.62-4.89,3.62Q84.75,92.66,72.25,92.64Z"/><path class="cls-1" d="M72.26,77.54H49.15l-2.56,0c-2.14,0-3.53-1-3.56-3.22s1.45-3.44,3.69-3.48c3.2-.06,6.41,0,9.62,0h39.8c.86,0,1.72,0,2.57,0,2.09.19,3.45,1.24,3.42,3.45s-1.41,3.23-3.55,3.24c-5.45,0-10.91,0-16.37,0Z"/><path class="cls-1" d="M72.35,61.26c-8.35,0-16.69,0-25,0-2.44,0-4.36-.48-4.28-3.41.07-2.69,1.94-3.25,4.21-3.25q25.35,0,50.72,0c2.31,0,4.13.68,4.14,3.33S100.42,61.3,98,61.28C89.47,61.23,80.91,61.26,72.35,61.26Z"/><line class="cls-1" x1="25.62" y1="57.51" x2="0.17" y2="57.51"/><rect class="cls-1" x="0.17" y="57.34" width="25.45" height="0.33"/><rect class="cls-1" x="0.17" y="56.84" width="25.45" height="1.34"/><path class="cls-1" d="M25.79,58.35H0V56.67H25.79ZM.33,58H25.45V57H.33Z"/><line class="cls-1" x1="25.62" y1="74.03" x2="4.19" y2="74.03"/><rect class="cls-1" x="4.19" y="73.86" width="21.43" height="0.33"/><rect class="cls-1" x="4.19" y="73.36" width="21.43" height="1.34"/><path class="cls-1" d="M25.79,74.87H4V73.19H25.79ZM4.35,74.53h21.1v-1H4.35Z"/><line class="cls-1" x1="25.62" y1="82.29" x2="10.88" y2="82.29"/><rect class="cls-1" x="10.88" y="82.13" width="14.74" height="0.33"/><rect class="cls-1" x="10.88" y="81.62" width="14.74" height="1.34"/><path class="cls-1" d="M25.79,83.13H10.72V81.46H25.79Zm-14.74-.34h14.4v-1H11.05Z"/><line class="cls-1" x1="24.28" y1="65.77" x2="13.56" y2="65.77"/><rect class="cls-1" x="13.56" y="65.6" width="10.72" height="0.33"/><rect class="cls-1" x="13.56" y="65.1" width="10.72" height="1.34"/><path class="cls-1" d="M24.45,66.61h-11V64.93h11Zm-10.72-.34H24.11v-1H13.73Z"/></g></g></svg>