<svg xmlns="http://www.w3.org/2000/svg" viewBox="0 0 179.22 161.58"><defs><style>.cls-1{fill:#0c4520;}.cls-2{fill:#ffd403;}</style></defs><title>HomeAsset 7</title><g id="Layer_2" data-name="Layer 2"><g id="Layer_1-2" data-name="Layer 1"><line class="cls-1" x1="30.54" y1="101.7" x2="0.2" y2="101.7"/><rect class="cls-1" x="0.2" y="101.53" width="30.34" height="0.33"/><rect class="cls-1" x="0.2" y="101.03" width="30.34" height="1.33"/><path class="cls-1" d="M30.73,102.53H0v-1.66H30.73ZM.4,102.2H30.34v-1H.4Z"/><line class="cls-1" x1="30.54" y1="118.09" x2="4.99" y2="118.09"/><rect class="cls-1" x="4.99" y="117.93" width="25.55" height="0.33"/><rect class="cls-1" x="4.99" y="117.43" width="25.55" height="1.33"/><path class="cls-1" d="M30.73,118.92H4.79v-1.66H30.73Zm-25.54-.33H30.34v-1H5.19Z"/><line class="cls-1" x1="30.54" y1="126.29" x2="12.97" y2="126.29"/><rect class="cls-1" x="12.97" y="126.12" width="17.56" height="0.33"/><rect class="cls-1" x="12.97" y="125.62" width="17.56" height="1.33"/><path class="cls-1" d="M30.73,127.12h-18v-1.66h18Zm-17.56-.33H30.34v-1H13.17Z"/><line class="cls-1" x1="28.94" y1="109.89" x2="16.17" y2="109.89"/><rect class="cls-1" x="16.17" y="109.73" width="12.77" height="0.33"/><rect class="cls-1" x="16.17" y="109.23" width="12.77" height="1.33"/><path class="cls-1" d="M29.14,110.73H16v-1.67H29.14Zm-12.77-.34H28.74v-1H16.37Z"/><path class="cls-1" d="M10,65.59v-4a52.26,52.26,0,0,1,4.05-3.83Q50,30.31,86,2.89a14.43,14.43,0,0,1,17.54.16q11.06,8.5,22.14,17c.63.48,1.34.86,2.36,1.5,0-4.16,0-7.9,0-11.64,0-2,.57-3.45,3.09-3.28a47.27,47.27,0,0,0,7,0c2.7-.22,3.45,1,3.42,3.47-.07,6.49.05,13-.06,19.46a4.58,4.58,0,0,0,2.07,4.21q16.22,12.19,32.29,24.59a37.66,37.66,0,0,1,3.38,3.31v4c-3.42,3.85-5.53,4-9.79.79l-7.7-5.81v92.7c0,5.94-2.38,8.3-8.39,8.3q-58.35,0-116.71,0c-5.83,0-8.11-2.31-8.11-8.24V59.8l-8.74,6.59C15.51,69.6,13.4,69.43,10,65.59Zm125.73,67.84,1.25-.52a28.62,28.62,0,0,0,.27-5.13c-1.18-10-8.95-15.82-19-13.93a6.64,6.64,0,0,1-6.85-2.22c-8.52-8.75-17.2-17.35-25.88-25.94A5,5,0,0,1,84,81.23a35.85,35.85,0,0,0-.35-10c-1.64-7.49-12-12.66-18.87-9.28,1.46,1.47,2.7,3,4.17,4.17a11.7,11.7,0,0,1,4.44,8.11c.27,2.42-3.59,8.51-5.94,8.27-3-.31-6.2-.25-8.52-2.91-1.8-2.07-3.87-3.91-5.81-5.86l-.82.39A24.67,24.67,0,0,0,52,78.67C53.25,90.18,61.17,94.78,72.13,93A4.86,4.86,0,0,1,77,94.55c8.46,8.56,16.91,17.12,25.54,25.5a7.45,7.45,0,0,1,2.51,7.37c-1.57,9.93,3.6,17.18,13,18.61a40,40,0,0,0,5.9,0l.4-1.14-5.64-5.67c-3.84-3.86-3.9-8.5-.14-12.25a7.87,7.87,0,0,1,11.21.09C131.84,129.14,133.76,131.31,135.73,133.43ZM80.51,106.85c-8.92,8.81-18,17.54-26.68,26.59-1.35,1.4-2,4.42-1.56,6.43,1.31,6.56,8.83,8.42,13.77,3.55,8.22-8.11,16.35-16.31,24.5-24.48a8.55,8.55,0,0,0,.9-1.15Zm25.43-8.75c3.77-3.83,7.36-7.66,11.15-11.26,1.88-1.78,3.94-3.69,6.28-4.57,6.36-2.4,10.07-7,12.64-13,1-2.26,1-3.6-.86-5.31-4.26-3.89-2.5-3.42-7.46-1.1-1.27.6-2.44,1.42-3.74,1.93a10.14,10.14,0,0,0-5.88,6,35.82,35.82,0,0,1-9.59,13.34c-2.88,2.53-5.52,5.33-8.23,8Z"/><path class="cls-2" d="M135.73,133.43c-2-2.12-3.89-4.29-5.93-6.33a7.87,7.87,0,0,0-11.21-.09c-3.76,3.75-3.7,8.39.14,12.25l5.64,5.67-.4,1.14a40,40,0,0,1-5.9,0c-9.39-1.43-14.56-8.68-13-18.61a7.45,7.45,0,0,0-2.51-7.37c-8.63-8.38-17.08-16.94-25.54-25.5A4.86,4.86,0,0,0,72.13,93c-11,1.8-18.88-2.8-20.15-14.31a24.67,24.67,0,0,1,.35-4.59l.82-.39c1.94,2,4,3.79,5.81,5.86,2.32,2.66,5.55,2.6,8.52,2.91,2.35.24,6.21-5.85,5.94-8.27A11.7,11.7,0,0,0,69,66.08c-1.47-1.21-2.71-2.7-4.17-4.17C71.67,58.53,82,63.7,83.68,71.19a35.85,35.85,0,0,1,.35,10,5,5,0,0,0,1.53,4.46c8.68,8.59,17.36,17.19,25.88,25.94a6.64,6.64,0,0,0,6.85,2.22c10-1.89,17.78,3.94,19,13.93a28.62,28.62,0,0,1-.27,5.13Z"/><path class="cls-2" d="M80.51,106.85l10.93,10.94a8.55,8.55,0,0,1-.9,1.15c-8.15,8.17-16.28,16.37-24.5,24.48-4.94,4.87-12.46,3-13.77-3.55-.4-2,.21-5,1.56-6.43C62.55,124.39,71.59,115.66,80.51,106.85Z"/><path class="cls-2" d="M105.94,98.1l-5.69-6c2.71-2.65,5.35-5.45,8.23-8a35.82,35.82,0,0,0,9.59-13.34,10.14,10.14,0,0,1,5.88-6c1.3-.51,2.47-1.33,3.74-1.93,5-2.32,3.2-2.79,7.46,1.1,1.86,1.71,1.82,3,.86,5.31-2.57,6-6.28,10.59-12.64,13-2.34.88-4.4,2.79-6.28,4.57C113.3,90.44,109.71,94.27,105.94,98.1Z"/></g></g></svg>